# xmcd
#
# Track frame offsets:
#	150
#	14455
#	29515
#	42947
#	56040
#	70505
#	83892
#	95750
#	109352
#	123530
#	135670
#	150570
#	165825
#	178337
#	190845
#	204140
#	217207
#	231757
#	244792
#	260134
#
# Disc length: 3670 seconds
#
# Revision: 1
# Processed by: cddbd v1.5.2PL0 Copyright (c) Steve Scherf et al.
# Submitted via: audiograbber 1.83.01
#
DISCID=200e5414
DTITLE=Mastruz Com Leite - I Circuito de Vaquejada
DYEAR=1900
DGENRE=Forró
TTITLE0=Meu Vaqueiro, Meu Peao
TTITLE1=Cavalo Lampeao
TTITLE2=Forrobodo
TTITLE3=Mulher de Gado
TTITLE4=Viajante Forrozeiro
TTITLE5=Quero Teu Amor Vaqueiro
TTITLE6=Vaquejada
TTITLE7=Boi na Faixa, Mulher na Cama
TTITLE8=Vaqueiro Internet
TTITLE9=Festa de Vaquejada
TTITLE10=Aboio Pra Ninar Morena
TTITLE11=O Peao e a Salome
TTITLE12=Vida de Vaqueiro
TTITLE13=Lembranca de Vaqueiro
TTITLE14=Vaqueiro Tem Que Dar Duro
TTITLE15=Cerveja Quente
TTITLE16=A Morte Do Touro Preto
TTITLE17=Lenda de Vaqueiro
TTITLE18=Coracao de Vaqueiro
TTITLE19=Vaqueiro Guerreiro
EXTD=
EXTT0=
EXTT1=
EXTT2=
EXTT3=
EXTT4=
EXTT5=
EXTT6=
EXTT7=
EXTT8=
EXTT9=
EXTT10=
EXTT11=
EXTT12=
EXTT13=
EXTT14=
EXTT15=
EXTT16=
EXTT17=
EXTT18=
EXTT19=
PLAYORDER=
